# MagicaVoxel @ Ephtracy

# group
o 

# material
mtllib carrot_seed_medium.mtl
usemtl palette

# normals
vn -1 0 0
vn 1 0 0
vn 0 0 1
vn 0 0 -1
vn 0 -1 0
vn 0 1 0

# texcoords
vt 0.0683594 0.5
vt 0.0996094 0.5
vt 0.185547 0.5

# verts
v -0.3 0.2 0
v -0.3 0.2 -0.1
v -0.3 0.3 0
v -0.3 0.3 -0.1
v -0.3 0.4 0
v -0.3 0.4 -0.1
v -0.3 0.5 0
v -0.3 0.5 -0.1
v -0.2 0.2 0.1
v -0.2 0.2 0
v -0.2 0.2 -0.1
v -0.2 0.2 -0.2
v -0.2 0.3 0.1
v -0.2 0.3 0
v -0.2 0.3 -0.1
v -0.2 0.3 -0.2
v -0.2 0.4 0
v -0.2 0.4 -0.1
v -0.1 0.2 -0.3
v -0.1 0.2 -0.4
v -0.1 0.3 -0.3
v -0.1 0.3 -0.4
v 0 0.2 0.3
v 0 0.2 0.2
v 0 0.2 -0.2
v 0 0.2 -0.3
v 0 0.2 -0.4
v 0 0.2 -0.5
v 0 0.3 0.3
v 0 0.3 0.2
v 0 0.3 -0.2
v 0 0.3 -0.3
v 0 0.3 -0.4
v 0 0.3 -0.5
v 0 0.4 -0.3
v 0 0.4 -0.4
v 0 0.4 -0.5
v 0 0.5 -0.4
v 0 0.5 -0.5
v 0.1 0.2 0.4
v 0.1 0.2 0.3
v 0.1 0.2 0.2
v 0.1 0.2 0.1
v 0.1 0.3 0.4
v 0.1 0.3 0.3
v 0.1 0.3 0.2
v 0.1 0.3 0.1
v 0.1 0.4 0.4
v 0.1 0.4 0.3
v 0.1 0.4 0.2
v 0.1 0.5 0.4
v 0.1 0.5 0.3
v -0.2 0.4 0
v -0.2 0.4 -0.1
v -0.2 0.5 0
v -0.2 0.5 -0.1
v -0.1 0.2 0.1
v -0.1 0.2 0
v -0.1 0.2 -0.1
v -0.1 0.2 -0.2
v -0.1 0.3 0.1
v -0.1 0.3 0
v -0.1 0.3 -0.1
v -0.1 0.3 -0.2
v -0.1 0.4 0
v -0.1 0.4 -0.1
v 0 0.2 0
v 0 0.2 -0.1
v 0 0.3 0
v 0 0.3 -0.1
v 0.1 0.2 -0.2
v 0.1 0.2 -0.3
v 0.1 0.2 -0.4
v 0.1 0.2 -0.5
v 0.1 0.3 -0.2
v 0.1 0.3 -0.3
v 0.1 0.3 -0.4
v 0.1 0.3 -0.5
v 0.1 0.4 -0.3
v 0.1 0.4 -0.4
v 0.1 0.4 -0.5
v 0.1 0.5 -0.4
v 0.1 0.5 -0.5
v 0.2 0.2 0.4
v 0.2 0.2 0.3
v 0.2 0.2 0.2
v 0.2 0.2 0.1
v 0.2 0.2 -0.3
v 0.2 0.2 -0.4
v 0.2 0.3 0.4
v 0.2 0.3 0.3
v 0.2 0.3 0.2
v 0.2 0.3 0.1
v 0.2 0.3 -0.3
v 0.2 0.3 -0.4
v 0.2 0.4 0.4
v 0.2 0.4 0.3
v 0.2 0.4 0.2
v 0.2 0.5 0.4
v 0.2 0.5 0.3
v 0.3 0.2 0.3
v 0.3 0.2 0.2
v 0.3 0.3 0.3
v 0.3 0.3 0.2
v 0.1 0.2 0.4
v 0.1 0.3 0.4
v 0.1 0.4 0.4
v 0.1 0.5 0.4
v 0.2 0.2 0.4
v 0.2 0.3 0.4
v 0.2 0.4 0.4
v 0.2 0.5 0.4
v 0 0.2 0.3
v 0 0.3 0.3
v 0.1 0.2 0.3
v 0.1 0.3 0.3
v 0.1 0.4 0.3
v 0.2 0.2 0.3
v 0.2 0.3 0.3
v 0.2 0.4 0.3
v 0.3 0.2 0.3
v 0.3 0.3 0.3
v -0.2 0.2 0.1
v -0.2 0.3 0.1
v -0.1 0.2 0.1
v -0.1 0.3 0.1
v -0.3 0.2 0
v -0.3 0.3 0
v -0.3 0.4 0
v -0.3 0.5 0
v -0.2 0.2 0
v -0.2 0.3 0
v -0.2 0.4 0
v -0.2 0.5 0
v -0.1 0.2 0
v -0.1 0.3 0
v -0.1 0.4 0
v 0 0.2 0
v 0 0.3 0
v 0 0.2 -0.2
v 0 0.3 -0.2
v 0.1 0.2 -0.2
v 0.1 0.3 -0.2
v -0.1 0.2 -0.3
v -0.1 0.3 -0.3
v 0 0.2 -0.3
v 0 0.3 -0.3
v 0 0.4 -0.3
v 0.1 0.2 -0.3
v 0.1 0.3 -0.3
v 0.1 0.4 -0.3
v 0.2 0.2 -0.3
v 0.2 0.3 -0.3
v 0 0.4 -0.4
v 0 0.5 -0.4
v 0.1 0.4 -0.4
v 0.1 0.5 -0.4
v 0.1 0.4 0.3
v 0.1 0.5 0.3
v 0.2 0.4 0.3
v 0.2 0.5 0.3
v 0 0.2 0.2
v 0 0.3 0.2
v 0.1 0.2 0.2
v 0.1 0.3 0.2
v 0.1 0.4 0.2
v 0.2 0.2 0.2
v 0.2 0.3 0.2
v 0.2 0.4 0.2
v 0.3 0.2 0.2
v 0.3 0.3 0.2
v 0.1 0.2 0.1
v 0.1 0.3 0.1
v 0.2 0.2 0.1
v 0.2 0.3 0.1
v -0.3 0.2 -0.1
v -0.3 0.3 -0.1
v -0.3 0.4 -0.1
v -0.3 0.5 -0.1
v -0.2 0.2 -0.1
v -0.2 0.3 -0.1
v -0.2 0.4 -0.1
v -0.2 0.5 -0.1
v -0.1 0.2 -0.1
v -0.1 0.3 -0.1
v -0.1 0.4 -0.1
v 0 0.2 -0.1
v 0 0.3 -0.1
v -0.2 0.2 -0.2
v -0.2 0.3 -0.2
v -0.1 0.2 -0.2
v -0.1 0.3 -0.2
v -0.1 0.2 -0.4
v -0.1 0.3 -0.4
v 0 0.2 -0.4
v 0 0.3 -0.4
v 0.1 0.2 -0.4
v 0.1 0.3 -0.4
v 0.2 0.2 -0.4
v 0.2 0.3 -0.4
v 0 0.2 -0.5
v 0 0.3 -0.5
v 0 0.4 -0.5
v 0 0.5 -0.5
v 0.1 0.2 -0.5
v 0.1 0.3 -0.5
v 0.1 0.4 -0.5
v 0.1 0.5 -0.5
v 0.1 0.2 0.4
v 0.2 0.2 0.4
v 0 0.2 0.3
v 0.1 0.2 0.3
v 0.2 0.2 0.3
v 0.3 0.2 0.3
v 0 0.2 0.2
v 0.1 0.2 0.2
v 0.2 0.2 0.2
v 0.3 0.2 0.2
v -0.2 0.2 0.1
v -0.1 0.2 0.1
v 0.1 0.2 0.1
v 0.2 0.2 0.1
v -0.3 0.2 0
v -0.2 0.2 0
v -0.1 0.2 0
v 0 0.2 0
v -0.3 0.2 -0.1
v -0.2 0.2 -0.1
v -0.1 0.2 -0.1
v 0 0.2 -0.1
v -0.2 0.2 -0.2
v -0.1 0.2 -0.2
v 0 0.2 -0.2
v 0.1 0.2 -0.2
v -0.1 0.2 -0.3
v 0 0.2 -0.3
v 0.1 0.2 -0.3
v 0.2 0.2 -0.3
v -0.1 0.2 -0.4
v 0 0.2 -0.4
v 0.1 0.2 -0.4
v 0.2 0.2 -0.4
v 0 0.2 -0.5
v 0.1 0.2 -0.5
v 0.1 0.4 0.4
v 0.2 0.4 0.4
v 0.1 0.4 0.3
v 0.2 0.4 0.3
v -0.3 0.4 0
v -0.2 0.4 0
v -0.3 0.4 -0.1
v -0.2 0.4 -0.1
v 0.1 0.3 0.4
v 0.2 0.3 0.4
v 0 0.3 0.3
v 0.1 0.3 0.3
v 0.2 0.3 0.3
v 0.3 0.3 0.3
v 0 0.3 0.2
v 0.1 0.3 0.2
v 0.2 0.3 0.2
v 0.3 0.3 0.2
v -0.2 0.3 0.1
v -0.1 0.3 0.1
v 0.1 0.3 0.1
v 0.2 0.3 0.1
v -0.3 0.3 0
v -0.2 0.3 0
v -0.1 0.3 0
v 0 0.3 0
v -0.3 0.3 -0.1
v -0.2 0.3 -0.1
v -0.1 0.3 -0.1
v 0 0.3 -0.1
v -0.2 0.3 -0.2
v -0.1 0.3 -0.2
v 0 0.3 -0.2
v 0.1 0.3 -0.2
v -0.1 0.3 -0.3
v 0 0.3 -0.3
v 0.1 0.3 -0.3
v 0.2 0.3 -0.3
v -0.1 0.3 -0.4
v 0 0.3 -0.4
v 0.1 0.3 -0.4
v 0.2 0.3 -0.4
v 0.1 0.4 0.3
v 0.2 0.4 0.3
v 0.1 0.4 0.2
v 0.2 0.4 0.2
v -0.2 0.4 0
v -0.1 0.4 0
v -0.2 0.4 -0.1
v -0.1 0.4 -0.1
v 0 0.4 -0.3
v 0.1 0.4 -0.3
v 0 0.4 -0.4
v 0.1 0.4 -0.4
v 0.1 0.5 0.4
v 0.2 0.5 0.4
v 0.1 0.5 0.3
v 0.2 0.5 0.3
v -0.3 0.5 0
v -0.2 0.5 0
v -0.3 0.5 -0.1
v -0.2 0.5 -0.1
v 0 0.5 -0.4
v 0.1 0.5 -0.4
v 0 0.5 -0.5
v 0.1 0.5 -0.5

# faces
f 3/3/1 2/3/1 1/3/1
f 4/3/1 2/3/1 3/3/1
f 7/2/1 6/2/1 5/2/1
f 8/2/1 6/2/1 7/2/1
f 13/3/1 10/3/1 9/3/1
f 14/3/1 10/3/1 13/3/1
f 15/3/1 12/3/1 11/3/1
f 16/3/1 12/3/1 15/3/1
f 17/1/1 15/1/1 14/1/1
f 18/1/1 15/1/1 17/1/1
f 21/3/1 20/3/1 19/3/1
f 22/3/1 20/3/1 21/3/1
f 29/3/1 24/3/1 23/3/1
f 30/3/1 24/3/1 29/3/1
f 31/3/1 26/3/1 25/3/1
f 32/3/1 26/3/1 31/3/1
f 33/3/1 28/3/1 27/3/1
f 34/3/1 28/3/1 33/3/1
f 35/1/1 34/1/1 33/1/1
f 35/1/1 33/1/1 32/1/1
f 36/1/1 34/1/1 35/1/1
f 37/1/1 34/1/1 36/1/1
f 38/2/1 37/2/1 36/2/1
f 39/2/1 37/2/1 38/2/1
f 44/3/1 41/3/1 40/3/1
f 45/3/1 41/3/1 44/3/1
f 46/3/1 43/3/1 42/3/1
f 47/3/1 43/3/1 46/3/1
f 49/1/1 46/1/1 45/1/1
f 50/1/1 46/1/1 49/1/1
f 51/2/1 49/2/1 48/2/1
f 52/2/1 49/2/1 51/2/1
f 53/2/2 54/2/2 55/2/2
f 55/2/2 54/2/2 56/2/2
f 57/3/2 58/3/2 61/3/2
f 61/3/2 58/3/2 62/3/2
f 59/3/2 60/3/2 63/3/2
f 63/3/2 60/3/2 64/3/2
f 62/1/2 63/1/2 65/1/2
f 65/1/2 63/1/2 66/1/2
f 67/3/2 68/3/2 69/3/2
f 69/3/2 68/3/2 70/3/2
f 71/3/2 72/3/2 75/3/2
f 75/3/2 72/3/2 76/3/2
f 73/3/2 74/3/2 77/3/2
f 77/3/2 74/3/2 78/3/2
f 76/1/2 77/1/2 79/1/2
f 77/1/2 78/1/2 79/1/2
f 79/1/2 78/1/2 80/1/2
f 80/1/2 78/1/2 81/1/2
f 80/2/2 81/2/2 82/2/2
f 82/2/2 81/2/2 83/2/2
f 84/3/2 85/3/2 90/3/2
f 90/3/2 85/3/2 91/3/2
f 86/3/2 87/3/2 92/3/2
f 92/3/2 87/3/2 93/3/2
f 88/3/2 89/3/2 94/3/2
f 94/3/2 89/3/2 95/3/2
f 91/1/2 92/1/2 97/1/2
f 97/1/2 92/1/2 98/1/2
f 96/2/2 97/2/2 99/2/2
f 99/2/2 97/2/2 100/2/2
f 101/3/2 102/3/2 103/3/2
f 103/3/2 102/3/2 104/3/2
f 109/3/3 106/3/3 105/3/3
f 110/3/3 106/3/3 109/3/3
f 111/2/3 108/2/3 107/2/3
f 112/2/3 108/2/3 111/2/3
f 115/3/3 114/3/3 113/3/3
f 116/3/3 114/3/3 115/3/3
f 119/1/3 117/1/3 116/1/3
f 120/1/3 117/1/3 119/1/3
f 121/3/3 119/3/3 118/3/3
f 122/3/3 119/3/3 121/3/3
f 125/3/3 124/3/3 123/3/3
f 126/3/3 124/3/3 125/3/3
f 131/3/3 128/3/3 127/3/3
f 132/3/3 128/3/3 131/3/3
f 133/2/3 130/2/3 129/2/3
f 134/2/3 130/2/3 133/2/3
f 136/1/3 133/1/3 132/1/3
f 137/1/3 133/1/3 136/1/3
f 138/3/3 136/3/3 135/3/3
f 139/3/3 136/3/3 138/3/3
f 142/3/3 141/3/3 140/3/3
f 143/3/3 141/3/3 142/3/3
f 146/3/3 145/3/3 144/3/3
f 147/3/3 145/3/3 146/3/3
f 150/1/3 148/1/3 147/1/3
f 151/1/3 148/1/3 150/1/3
f 152/3/3 150/3/3 149/3/3
f 153/3/3 150/3/3 152/3/3
f 156/2/3 155/2/3 154/2/3
f 157/2/3 155/2/3 156/2/3
f 158/2/4 159/2/4 160/2/4
f 160/2/4 159/2/4 161/2/4
f 162/3/4 163/3/4 164/3/4
f 164/3/4 163/3/4 165/3/4
f 165/1/4 166/1/4 168/1/4
f 168/1/4 166/1/4 169/1/4
f 167/3/4 168/3/4 170/3/4
f 170/3/4 168/3/4 171/3/4
f 172/3/4 173/3/4 174/3/4
f 174/3/4 173/3/4 175/3/4
f 176/3/4 177/3/4 180/3/4
f 180/3/4 177/3/4 181/3/4
f 178/2/4 179/2/4 182/2/4
f 182/2/4 179/2/4 183/2/4
f 181/1/4 182/1/4 185/1/4
f 185/1/4 182/1/4 186/1/4
f 184/3/4 185/3/4 187/3/4
f 187/3/4 185/3/4 188/3/4
f 189/3/4 190/3/4 191/3/4
f 191/3/4 190/3/4 192/3/4
f 193/3/4 194/3/4 195/3/4
f 195/3/4 194/3/4 196/3/4
f 197/3/4 198/3/4 199/3/4
f 199/3/4 198/3/4 200/3/4
f 201/3/4 202/3/4 205/3/4
f 202/1/4 203/1/4 206/1/4
f 205/3/4 202/3/4 206/3/4
f 203/2/4 204/2/4 207/2/4
f 206/1/4 203/1/4 207/1/4
f 207/2/4 204/2/4 208/2/4
f 212/3/5 210/3/5 209/3/5
f 213/3/5 210/3/5 212/3/5
f 215/3/5 212/3/5 211/3/5
f 216/1/5 213/1/5 212/1/5
f 216/3/5 212/3/5 215/3/5
f 217/3/5 214/3/5 213/3/5
f 217/1/5 213/1/5 216/1/5
f 218/3/5 214/3/5 217/3/5
f 221/3/5 217/3/5 216/3/5
f 222/3/5 217/3/5 221/3/5
f 224/3/5 220/3/5 219/3/5
f 225/3/5 220/3/5 224/3/5
f 227/3/5 224/3/5 223/3/5
f 228/1/5 225/1/5 224/1/5
f 228/3/5 224/3/5 227/3/5
f 229/3/5 226/3/5 225/3/5
f 229/1/5 225/1/5 228/1/5
f 230/3/5 226/3/5 229/3/5
f 231/3/5 229/3/5 228/3/5
f 232/3/5 229/3/5 231/3/5
f 236/3/5 234/3/5 233/3/5
f 237/3/5 234/3/5 236/3/5
f 239/3/5 236/3/5 235/3/5
f 239/3/5 238/3/5 237/3/5
f 239/3/5 237/3/5 236/3/5
f 240/3/5 238/3/5 239/3/5
f 241/3/5 238/3/5 240/3/5
f 242/3/5 238/3/5 241/3/5
f 243/3/5 241/3/5 240/3/5
f 244/3/5 241/3/5 243/3/5
f 247/2/5 246/2/5 245/2/5
f 248/2/5 246/2/5 247/2/5
f 251/2/5 250/2/5 249/2/5
f 252/2/5 250/2/5 251/2/5
f 253/3/6 254/3/6 256/3/6
f 256/3/6 254/3/6 257/3/6
f 255/3/6 256/3/6 259/3/6
f 259/3/6 256/3/6 260/3/6
f 257/3/6 258/3/6 261/3/6
f 261/3/6 258/3/6 262/3/6
f 260/3/6 261/3/6 265/3/6
f 265/3/6 261/3/6 266/3/6
f 263/3/6 264/3/6 268/3/6
f 268/3/6 264/3/6 269/3/6
f 267/3/6 268/3/6 271/3/6
f 271/3/6 268/3/6 272/3/6
f 269/3/6 270/3/6 273/3/6
f 273/3/6 270/3/6 274/3/6
f 272/3/6 273/3/6 275/3/6
f 275/3/6 273/3/6 276/3/6
f 277/3/6 278/3/6 280/3/6
f 280/3/6 278/3/6 281/3/6
f 279/3/6 280/3/6 283/3/6
f 283/3/6 280/3/6 284/3/6
f 281/3/6 282/3/6 285/3/6
f 285/3/6 282/3/6 286/3/6
f 287/1/6 288/1/6 289/1/6
f 289/1/6 288/1/6 290/1/6
f 291/1/6 292/1/6 293/1/6
f 293/1/6 292/1/6 294/1/6
f 295/1/6 296/1/6 297/1/6
f 297/1/6 296/1/6 298/1/6
f 299/2/6 300/2/6 301/2/6
f 301/2/6 300/2/6 302/2/6
f 303/2/6 304/2/6 305/2/6
f 305/2/6 304/2/6 306/2/6
f 307/2/6 308/2/6 309/2/6
f 309/2/6 308/2/6 310/2/6
