# MagicaVoxel @ Ephtracy

# group
o 

# material
mtllib carrot_seed_big.mtl
usemtl palette

# normals
vn -1 0 0
vn 1 0 0
vn 0 0 1
vn 0 0 -1
vn 0 -1 0
vn 0 1 0

# texcoords
vt 0.0332031 0.5
vt 0.0683594 0.5
vt 0.0996094 0.5
vt 0.185547 0.5

# verts
v -0.6 0.3 0.1
v -0.6 0.3 0
v -0.6 0.4 0.1
v -0.6 0.4 0
v -0.5 0.4 0.1
v -0.5 0.4 0
v -0.5 0.4 -0.1
v -0.5 0.4 -0.2
v -0.5 0.5 0.1
v -0.5 0.5 0
v -0.5 0.5 -0.1
v -0.5 0.5 -0.2
v -0.4 0.5 0
v -0.4 0.5 -0.1
v -0.4 0.6 0
v -0.4 0.6 -0.1
v -0.3 0.2 0
v -0.3 0.2 -0.1
v -0.3 0.3 0.1
v -0.3 0.3 0
v -0.3 0.3 -0.1
v -0.3 0.3 -0.2
v -0.3 0.4 0.1
v -0.3 0.4 0
v -0.3 0.4 -0.1
v -0.3 0.4 -0.2
v -0.3 0.5 0
v -0.3 0.5 -0.1
v -0.2 0.2 0.1
v -0.2 0.2 0
v -0.2 0.2 -0.1
v -0.2 0.2 -0.2
v -0.2 0.3 0.1
v -0.2 0.3 0
v -0.2 0.3 -0.1
v -0.2 0.3 -0.2
v -0.2 0.4 -0.1
v -0.2 0.4 -0.2
v -0.2 0.5 -0.1
v -0.2 0.5 -0.2
v -0.1 0.2 -0.3
v -0.1 0.2 -0.4
v -0.1 0.3 -0.2
v -0.1 0.3 -0.3
v -0.1 0.3 -0.4
v -0.1 0.3 -0.5
v -0.1 0.4 -0.2
v -0.1 0.4 -0.3
v -0.1 0.4 -0.5
v -0.1 0.5 -0.3
v -0.1 0.5 -0.5
v 0 0.2 0.3
v 0 0.2 0.2
v 0 0.2 -0.2
v 0 0.2 -0.3
v 0 0.2 -0.4
v 0 0.2 -0.5
v 0 0.2 -0.6
v 0 0.2 -0.7
v 0 0.3 0.4
v 0 0.3 0.3
v 0 0.3 0.2
v 0 0.3 0.1
v 0 0.3 -0.2
v 0 0.3 -0.3
v 0 0.3 -0.4
v 0 0.3 -0.5
v 0 0.3 -0.6
v 0 0.3 -0.7
v 0 0.4 0.6
v 0 0.4 0.5
v 0 0.4 0.4
v 0 0.4 0.3
v 0 0.4 0.2
v 0 0.4 0.1
v 0 0.4 -0.2
v 0 0.4 -0.3
v 0 0.4 -0.5
v 0 0.4 -0.6
v 0 0.4 -0.7
v 0 0.5 0.6
v 0 0.5 0.5
v 0 0.5 0.3
v 0 0.5 0.2
v 0 0.5 -0.2
v 0 0.5 -0.3
v 0 0.5 -0.4
v 0 0.5 -0.5
v 0 0.5 -0.6
v 0 0.5 -0.7
v 0 0.6 -0.4
v 0 0.6 -0.5
v 0 0.6 -0.6
v 0.1 0.2 0.4
v 0.1 0.2 0.3
v 0.1 0.2 0.2
v 0.1 0.2 0.1
v 0.1 0.3 0.4
v 0.1 0.3 0.3
v 0.1 0.3 0.2
v 0.1 0.3 0.1
v 0.1 0.4 0.4
v 0.1 0.4 0.3
v 0.1 0.4 0.2
v 0.1 0.4 0.1
v 0.1 0.4 -0.5
v 0.1 0.4 -0.6
v 0.1 0.5 0.5
v 0.1 0.5 0.4
v 0.1 0.5 0.3
v 0.1 0.5 0.2
v 0.1 0.5 0.1
v 0.1 0.5 -0.5
v 0.1 0.5 -0.6
v 0.1 0.6 0.5
v 0.1 0.6 0.4
v 0.1 0.6 0.3
v 0.2 0.3 0.6
v 0.2 0.3 0.5
v 0.2 0.4 0.6
v 0.2 0.4 0.5
v 0.2 0.4 0.4
v 0.2 0.5 0.5
v 0.2 0.5 0.4
v -0.5 0.3 0.1
v -0.5 0.3 0
v -0.5 0.4 0.1
v -0.5 0.4 0
v -0.4 0.4 -0.1
v -0.4 0.4 -0.2
v -0.4 0.5 -0.1
v -0.4 0.5 -0.2
v -0.2 0.5 0
v -0.2 0.5 -0.1
v -0.2 0.6 0
v -0.2 0.6 -0.1
v -0.1 0.2 0.1
v -0.1 0.2 0
v -0.1 0.2 -0.1
v -0.1 0.2 -0.2
v -0.1 0.3 0.1
v -0.1 0.3 0
v -0.1 0.3 -0.1
v -0.1 0.3 -0.2
v -0.1 0.4 0.1
v -0.1 0.4 0
v -0.1 0.4 -0.1
v -0.1 0.4 -0.2
v -0.1 0.5 0.1
v -0.1 0.5 0
v -0.1 0.5 -0.1
v -0.1 0.5 -0.2
v 0 0.2 0
v 0 0.2 -0.1
v 0 0.3 0.1
v 0 0.3 0
v 0 0.3 -0.1
v 0 0.3 -0.2
v 0 0.4 0.1
v 0 0.4 0
v 0 0.4 -0.1
v 0 0.4 -0.2
v 0 0.5 0
v 0 0.5 -0.1
v 0.1 0.2 -0.2
v 0.1 0.2 -0.3
v 0.1 0.2 -0.4
v 0.1 0.2 -0.5
v 0.1 0.2 -0.6
v 0.1 0.2 -0.7
v 0.1 0.3 -0.2
v 0.1 0.3 -0.3
v 0.1 0.3 -0.4
v 0.1 0.3 -0.5
v 0.1 0.3 -0.6
v 0.1 0.3 -0.7
v 0.1 0.4 0.6
v 0.1 0.4 0.5
v 0.1 0.4 -0.2
v 0.1 0.4 -0.3
v 0.1 0.4 -0.4
v 0.1 0.4 -0.5
v 0.1 0.4 -0.6
v 0.1 0.4 -0.7
v 0.1 0.5 0.6
v 0.1 0.5 0.5
v 0.1 0.5 -0.2
v 0.1 0.5 -0.3
v 0.1 0.5 -0.4
v 0.1 0.5 -0.5
v 0.1 0.5 -0.6
v 0.1 0.5 -0.7
v 0.1 0.6 -0.4
v 0.1 0.6 -0.5
v 0.1 0.6 -0.6
v 0.2 0.2 0.4
v 0.2 0.2 0.3
v 0.2 0.2 0.2
v 0.2 0.2 0.1
v 0.2 0.2 -0.3
v 0.2 0.2 -0.4
v 0.2 0.3 0.4
v 0.2 0.3 0.3
v 0.2 0.3 0.2
v 0.2 0.3 0.1
v 0.2 0.3 -0.2
v 0.2 0.3 -0.3
v 0.2 0.3 -0.4
v 0.2 0.3 -0.5
v 0.2 0.4 0.2
v 0.2 0.4 0.1
v 0.2 0.4 -0.2
v 0.2 0.4 -0.3
v 0.2 0.4 -0.4
v 0.2 0.4 -0.5
v 0.2 0.4 -0.6
v 0.2 0.5 0.5
v 0.2 0.5 0.4
v 0.2 0.5 0.3
v 0.2 0.5 0.2
v 0.2 0.5 0.1
v 0.2 0.5 -0.3
v 0.2 0.5 -0.4
v 0.2 0.5 -0.5
v 0.2 0.5 -0.6
v 0.2 0.6 0.5
v 0.2 0.6 0.4
v 0.2 0.6 0.3
v 0.3 0.2 0.3
v 0.3 0.2 0.2
v 0.3 0.3 0.6
v 0.3 0.3 0.5
v 0.3 0.3 0.4
v 0.3 0.3 0.3
v 0.3 0.3 0.2
v 0.3 0.3 0.1
v 0.3 0.4 0.6
v 0.3 0.4 0.5
v 0.3 0.4 0.4
v 0.3 0.4 0.2
v 0.3 0.4 0.1
v 0.3 0.5 0.5
v 0.3 0.5 0.4
v 0.3 0.5 0.2
v 0 0.4 0.6
v 0 0.5 0.6
v 0.1 0.4 0.6
v 0.1 0.5 0.6
v 0.2 0.3 0.6
v 0.2 0.4 0.6
v 0.3 0.3 0.6
v 0.3 0.4 0.6
v 0.1 0.5 0.5
v 0.1 0.6 0.5
v 0.2 0.4 0.5
v 0.2 0.5 0.5
v 0.2 0.6 0.5
v 0.3 0.4 0.5
v 0.3 0.5 0.5
v 0 0.3 0.4
v 0 0.4 0.4
v 0.1 0.2 0.4
v 0.1 0.3 0.4
v 0.1 0.4 0.4
v 0.1 0.5 0.4
v 0.2 0.2 0.4
v 0.2 0.3 0.4
v 0.2 0.4 0.4
v 0.2 0.5 0.4
v 0.3 0.3 0.4
v 0.3 0.4 0.4
v 0 0.2 0.3
v 0 0.3 0.3
v 0 0.4 0.3
v 0 0.5 0.3
v 0.1 0.2 0.3
v 0.1 0.3 0.3
v 0.1 0.4 0.3
v 0.1 0.5 0.3
v 0.2 0.2 0.3
v 0.2 0.3 0.3
v 0.3 0.2 0.3
v 0.3 0.3 0.3
v -0.6 0.3 0.1
v -0.6 0.4 0.1
v -0.5 0.3 0.1
v -0.5 0.4 0.1
v -0.5 0.5 0.1
v -0.3 0.3 0.1
v -0.3 0.4 0.1
v -0.3 0.5 0.1
v -0.2 0.2 0.1
v -0.2 0.3 0.1
v -0.2 0.4 0.1
v -0.2 0.5 0.1
v -0.1 0.2 0.1
v -0.1 0.3 0.1
v -0.1 0.4 0.1
v -0.1 0.5 0.1
v 0 0.3 0.1
v 0 0.4 0.1
v -0.4 0.5 0
v -0.4 0.6 0
v -0.3 0.2 0
v -0.3 0.3 0
v -0.3 0.5 0
v -0.3 0.6 0
v -0.2 0.2 0
v -0.2 0.3 0
v -0.2 0.5 0
v -0.2 0.6 0
v -0.1 0.2 0
v -0.1 0.3 0
v -0.1 0.4 0
v -0.1 0.5 0
v 0 0.2 0
v 0 0.3 0
v 0 0.4 0
v 0 0.5 0
v -0.5 0.4 -0.1
v -0.5 0.5 -0.1
v -0.4 0.4 -0.1
v -0.4 0.5 -0.1
v 0 0.2 -0.2
v 0 0.3 -0.2
v 0 0.4 -0.2
v 0 0.5 -0.2
v 0.1 0.2 -0.2
v 0.1 0.3 -0.2
v 0.1 0.4 -0.2
v 0.1 0.5 -0.2
v 0.2 0.3 -0.2
v 0.2 0.4 -0.2
v -0.1 0.2 -0.3
v -0.1 0.3 -0.3
v -0.1 0.4 -0.3
v -0.1 0.5 -0.3
v 0 0.2 -0.3
v 0 0.3 -0.3
v 0 0.4 -0.3
v 0 0.5 -0.3
v 0.1 0.2 -0.3
v 0.1 0.3 -0.3
v 0.1 0.4 -0.3
v 0.1 0.5 -0.3
v 0.2 0.2 -0.3
v 0.2 0.3 -0.3
v 0.2 0.4 -0.3
v 0.2 0.5 -0.3
v 0 0.5 -0.4
v 0 0.6 -0.4
v 0.1 0.5 -0.4
v 0.1 0.6 -0.4
v 0.1 0.4 -0.5
v 0.1 0.5 -0.5
v 0.2 0.4 -0.5
v 0.2 0.5 -0.5
v 0 0.2 -0.6
v 0 0.3 -0.6
v 0 0.4 -0.6
v 0 0.5 -0.6
v 0.1 0.2 -0.6
v 0.1 0.3 -0.6
v 0.1 0.4 -0.6
v 0.1 0.5 -0.6
v 0 0.4 0.5
v 0 0.5 0.5
v 0.1 0.4 0.5
v 0.1 0.5 0.5
v 0.2 0.3 0.5
v 0.2 0.4 0.5
v 0.3 0.3 0.5
v 0.3 0.4 0.5
v 0.1 0.5 0.3
v 0.1 0.6 0.3
v 0.2 0.5 0.3
v 0.2 0.6 0.3
v 0 0.2 0.2
v 0 0.3 0.2
v 0 0.4 0.2
v 0 0.5 0.2
v 0.1 0.2 0.2
v 0.1 0.3 0.2
v 0.1 0.4 0.2
v 0.1 0.5 0.2
v 0.2 0.2 0.2
v 0.2 0.3 0.2
v 0.2 0.4 0.2
v 0.2 0.5 0.2
v 0.3 0.2 0.2
v 0.3 0.3 0.2
v 0.3 0.4 0.2
v 0.3 0.5 0.2
v 0 0.3 0.1
v 0 0.4 0.1
v 0.1 0.2 0.1
v 0.1 0.3 0.1
v 0.1 0.4 0.1
v 0.1 0.5 0.1
v 0.2 0.2 0.1
v 0.2 0.3 0.1
v 0.2 0.4 0.1
v 0.2 0.5 0.1
v 0.3 0.3 0.1
v 0.3 0.4 0.1
v -0.6 0.3 0
v -0.6 0.4 0
v -0.5 0.3 0
v -0.5 0.4 0
v -0.5 0.5 0
v -0.4 0.5 0
v -0.3 0.4 0
v -0.3 0.5 0
v -0.4 0.5 -0.1
v -0.4 0.6 -0.1
v -0.3 0.2 -0.1
v -0.3 0.3 -0.1
v -0.3 0.4 -0.1
v -0.3 0.5 -0.1
v -0.3 0.6 -0.1
v -0.2 0.2 -0.1
v -0.2 0.3 -0.1
v -0.2 0.4 -0.1
v -0.2 0.5 -0.1
v -0.2 0.6 -0.1
v -0.1 0.2 -0.1
v -0.1 0.3 -0.1
v -0.1 0.4 -0.1
v -0.1 0.5 -0.1
v 0 0.2 -0.1
v 0 0.3 -0.1
v 0 0.4 -0.1
v 0 0.5 -0.1
v -0.5 0.4 -0.2
v -0.5 0.5 -0.2
v -0.4 0.4 -0.2
v -0.4 0.5 -0.2
v -0.3 0.3 -0.2
v -0.3 0.4 -0.2
v -0.2 0.2 -0.2
v -0.2 0.3 -0.2
v -0.2 0.4 -0.2
v -0.2 0.5 -0.2
v -0.1 0.2 -0.2
v -0.1 0.3 -0.2
v -0.1 0.4 -0.2
v -0.1 0.5 -0.2
v -0.1 0.2 -0.4
v -0.1 0.3 -0.4
v 0 0.2 -0.4
v 0 0.3 -0.4
v 0.1 0.2 -0.4
v 0.1 0.3 -0.4
v 0.1 0.4 -0.4
v 0.1 0.5 -0.4
v 0.2 0.2 -0.4
v 0.2 0.3 -0.4
v 0.2 0.4 -0.4
v 0.2 0.5 -0.4
v -0.1 0.3 -0.5
v -0.1 0.4 -0.5
v -0.1 0.5 -0.5
v 0 0.2 -0.5
v 0 0.3 -0.5
v 0 0.4 -0.5
v 0 0.5 -0.5
v 0.1 0.2 -0.5
v 0.1 0.3 -0.5
v 0.1 0.4 -0.5
v 0.1 0.5 -0.5
v 0.2 0.3 -0.5
v 0.2 0.4 -0.5
v 0 0.3 -0.6
v 0 0.4 -0.6
v 0 0.5 -0.6
v 0 0.6 -0.6
v 0.1 0.3 -0.6
v 0.1 0.4 -0.6
v 0.1 0.5 -0.6
v 0.1 0.6 -0.6
v 0.2 0.4 -0.6
v 0.2 0.5 -0.6
v 0 0.2 -0.7
v 0 0.3 -0.7
v 0 0.4 -0.7
v 0 0.5 -0.7
v 0.1 0.2 -0.7
v 0.1 0.3 -0.7
v 0.1 0.4 -0.7
v 0.1 0.5 -0.7
v 0.1 0.2 0.4
v 0.2 0.2 0.4
v 0 0.2 0.3
v 0.1 0.2 0.3
v 0.2 0.2 0.3
v 0.3 0.2 0.3
v 0 0.2 0.2
v 0.1 0.2 0.2
v 0.2 0.2 0.2
v 0.3 0.2 0.2
v -0.2 0.2 0.1
v -0.1 0.2 0.1
v 0.1 0.2 0.1
v 0.2 0.2 0.1
v -0.3 0.2 0
v -0.2 0.2 0
v -0.1 0.2 0
v 0 0.2 0
v -0.3 0.2 -0.1
v -0.2 0.2 -0.1
v -0.1 0.2 -0.1
v 0 0.2 -0.1
v -0.2 0.2 -0.2
v -0.1 0.2 -0.2
v 0 0.2 -0.2
v 0.1 0.2 -0.2
v -0.1 0.2 -0.3
v 0 0.2 -0.3
v 0.1 0.2 -0.3
v 0.2 0.2 -0.3
v -0.1 0.2 -0.4
v 0 0.2 -0.4
v 0.1 0.2 -0.4
v 0.2 0.2 -0.4
v 0 0.2 -0.5
v 0.1 0.2 -0.5
v 0 0.2 -0.6
v 0.1 0.2 -0.6
v 0 0.2 -0.7
v 0.1 0.2 -0.7
v 0.2 0.3 0.6
v 0.3 0.3 0.6
v 0.2 0.3 0.5
v 0.3 0.3 0.5
v 0 0.3 0.4
v 0.1 0.3 0.4
v 0.2 0.3 0.4
v 0.3 0.3 0.4
v 0 0.3 0.3
v 0.1 0.3 0.3
v 0.2 0.3 0.3
v 0.3 0.3 0.3
v 0 0.3 0.2
v 0.1 0.3 0.2
v 0.2 0.3 0.2
v 0.3 0.3 0.2
v -0.6 0.3 0.1
v -0.5 0.3 0.1
v -0.3 0.3 0.1
v -0.2 0.3 0.1
v -0.1 0.3 0.1
v 0 0.3 0.1
v 0.1 0.3 0.1
v 0.2 0.3 0.1
v 0.3 0.3 0.1
v -0.6 0.3 0
v -0.5 0.3 0
v -0.3 0.3 0
v -0.2 0.3 0
v -0.1 0.3 0
v 0 0.3 0
v -0.3 0.3 -0.1
v -0.2 0.3 -0.1
v -0.1 0.3 -0.1
v 0 0.3 -0.1
v -0.3 0.3 -0.2
v -0.2 0.3 -0.2
v -0.1 0.3 -0.2
v 0 0.3 -0.2
v 0.1 0.3 -0.2
v 0.2 0.3 -0.2
v -0.1 0.3 -0.3
v 0 0.3 -0.3
v 0.1 0.3 -0.3
v 0.2 0.3 -0.3
v -0.1 0.3 -0.4
v 0 0.3 -0.4
v 0.1 0.3 -0.4
v 0.2 0.3 -0.4
v -0.1 0.3 -0.5
v 0 0.3 -0.5
v 0.1 0.3 -0.5
v 0.2 0.3 -0.5
v 0 0.3 -0.6
v 0.1 0.3 -0.6
v 0 0.4 0.6
v 0.1 0.4 0.6
v 0 0.4 0.5
v 0.1 0.4 0.5
v 0.2 0.4 0.5
v 0.3 0.4 0.5
v 0.2 0.4 0.4
v 0.3 0.4 0.4
v -0.5 0.4 0.1
v -0.3 0.4 0.1
v -0.5 0.4 0
v -0.3 0.4 0
v -0.5 0.4 -0.1
v -0.4 0.4 -0.1
v -0.5 0.4 -0.2
v -0.4 0.4 -0.2
v 0.1 0.4 -0.5
v 0.2 0.4 -0.5
v 0 0.4 -0.6
v 0.1 0.4 -0.6
v 0.2 0.4 -0.6
v 0 0.4 -0.7
v 0.1 0.4 -0.7
v 0.1 0.5 0.5
v 0.2 0.5 0.5
v 0.1 0.5 0.4
v 0.2 0.5 0.4
v -0.4 0.5 0
v -0.3 0.5 0
v -0.4 0.5 -0.1
v -0.3 0.5 -0.1
v 0 0.5 -0.5
v 0.1 0.5 -0.5
v 0 0.5 -0.6
v 0.1 0.5 -0.6
v 0 0.3 -0.6
v 0.1 0.3 -0.6
v 0 0.3 -0.7
v 0.1 0.3 -0.7
v 0.2 0.4 0.6
v 0.3 0.4 0.6
v 0.2 0.4 0.5
v 0.3 0.4 0.5
v 0 0.4 0.4
v 0.1 0.4 0.4
v 0 0.4 0.3
v 0.1 0.4 0.3
v 0 0.4 0.2
v 0.1 0.4 0.2
v 0.2 0.4 0.2
v 0.3 0.4 0.2
v -0.6 0.4 0.1
v -0.5 0.4 0.1
v -0.1 0.4 0.1
v 0 0.4 0.1
v 0.1 0.4 0.1
v 0.2 0.4 0.1
v 0.3 0.4 0.1
v -0.6 0.4 0
v -0.5 0.4 0
v -0.1 0.4 0
v 0 0.4 0
v -0.3 0.4 -0.1
v -0.2 0.4 -0.1
v -0.1 0.4 -0.1
v 0 0.4 -0.1
v -0.3 0.4 -0.2
v -0.2 0.4 -0.2
v -0.1 0.4 -0.2
v 0 0.4 -0.2
v 0.1 0.4 -0.2
v 0.2 0.4 -0.2
v -0.1 0.4 -0.3
v 0 0.4 -0.3
v 0.1 0.4 -0.3
v 0.2 0.4 -0.3
v 0.1 0.4 -0.4
v 0.2 0.4 -0.4
v 0 0.4 -0.5
v 0.1 0.4 -0.5
v 0.2 0.4 -0.5
v 0 0.4 -0.6
v 0.1 0.4 -0.6
v 0 0.5 0.6
v 0.1 0.5 0.6
v 0 0.5 0.5
v 0.1 0.5 0.5
v 0.2 0.5 0.5
v 0.3 0.5 0.5
v 0.2 0.5 0.4
v 0.3 0.5 0.4
v 0 0.5 0.3
v 0.1 0.5 0.3
v 0.2 0.5 0.3
v 0 0.5 0.2
v 0.1 0.5 0.2
v 0.2 0.5 0.2
v 0.3 0.5 0.2
v -0.5 0.5 0.1
v -0.3 0.5 0.1
v -0.2 0.5 0.1
v -0.1 0.5 0.1
v 0.1 0.5 0.1
v 0.2 0.5 0.1
v -0.5 0.5 0
v -0.4 0.5 0
v -0.3 0.5 0
v -0.2 0.5 0
v -0.1 0.5 0
v 0 0.5 0
v -0.5 0.5 -0.1
v -0.4 0.5 -0.1
v -0.2 0.5 -0.1
v -0.1 0.5 -0.1
v 0 0.5 -0.1
v -0.5 0.5 -0.2
v -0.4 0.5 -0.2
v -0.2 0.5 -0.2
v -0.1 0.5 -0.2
v 0 0.5 -0.2
v 0.1 0.5 -0.2
v -0.1 0.5 -0.3
v 0 0.5 -0.3
v 0.1 0.5 -0.3
v 0.2 0.5 -0.3
v 0 0.5 -0.4
v 0.1 0.5 -0.4
v 0.2 0.5 -0.4
v -0.1 0.5 -0.5
v 0 0.5 -0.5
v 0.1 0.5 -0.5
v 0.2 0.5 -0.5
v 0 0.5 -0.6
v 0.1 0.5 -0.6
v 0.2 0.5 -0.6
v 0 0.5 -0.7
v 0.1 0.5 -0.7
v 0.1 0.6 0.5
v 0.2 0.6 0.5
v 0.1 0.6 0.4
v 0.2 0.6 0.4
v 0.1 0.6 0.3
v 0.2 0.6 0.3
v -0.4 0.6 0
v -0.3 0.6 0
v -0.2 0.6 0
v -0.4 0.6 -0.1
v -0.3 0.6 -0.1
v -0.2 0.6 -0.1
v 0 0.6 -0.4
v 0.1 0.6 -0.4
v 0 0.6 -0.5
v 0.1 0.6 -0.5
v 0 0.6 -0.6
v 0.1 0.6 -0.6

# faces
f 3/3/1 2/3/1 1/3/1
f 4/3/1 2/3/1 3/3/1
f 9/1/1 6/1/1 5/1/1
f 10/1/1 6/1/1 9/1/1
f 11/3/1 8/3/1 7/3/1
f 12/3/1 8/3/1 11/3/1
f 15/1/1 14/1/1 13/1/1
f 16/1/1 14/1/1 15/1/1
f 20/4/1 18/4/1 17/4/1
f 21/4/1 18/4/1 20/4/1
f 23/4/1 20/4/1 19/4/1
f 23/4/1 22/4/1 21/4/1
f 23/4/1 21/4/1 20/4/1
f 24/4/1 22/4/1 23/4/1
f 25/4/1 22/4/1 24/4/1
f 26/4/1 22/4/1 25/4/1
f 27/2/1 25/2/1 24/2/1
f 28/2/1 25/2/1 27/2/1
f 33/4/1 30/4/1 29/4/1
f 34/4/1 30/4/1 33/4/1
f 35/4/1 32/4/1 31/4/1
f 36/4/1 32/4/1 35/4/1
f 39/1/1 38/1/1 37/1/1
f 40/1/1 38/1/1 39/1/1
f 44/4/1 42/4/1 41/4/1
f 45/4/1 42/4/1 44/4/1
f 47/4/1 44/4/1 43/4/1
f 47/4/1 46/4/1 45/4/1
f 47/4/1 45/4/1 44/4/1
f 48/4/1 46/4/1 47/4/1
f 49/4/1 46/4/1 48/4/1
f 50/1/1 49/1/1 48/1/1
f 51/1/1 49/1/1 50/1/1
f 61/4/1 53/4/1 52/4/1
f 62/4/1 53/4/1 61/4/1
f 64/4/1 55/4/1 54/4/1
f 65/4/1 55/4/1 64/4/1
f 66/4/1 57/4/1 56/4/1
f 67/4/1 57/4/1 66/4/1
f 68/3/1 59/3/1 58/3/1
f 69/3/1 59/3/1 68/3/1
f 72/4/1 63/4/1 62/4/1
f 72/4/1 61/4/1 60/4/1
f 72/4/1 62/4/1 61/4/1
f 73/4/1 63/4/1 72/4/1
f 74/4/1 63/4/1 73/4/1
f 75/4/1 63/4/1 74/4/1
f 78/3/1 68/3/1 67/3/1
f 79/3/1 68/3/1 78/3/1
f 81/3/1 71/3/1 70/3/1
f 82/3/1 71/3/1 81/3/1
f 83/1/1 74/1/1 73/1/1
f 84/1/1 74/1/1 83/1/1
f 85/2/1 77/2/1 76/2/1
f 86/2/1 77/2/1 85/2/1
f 89/3/1 80/3/1 79/3/1
f 90/3/1 80/3/1 89/3/1
f 91/2/1 88/2/1 87/2/1
f 92/1/1 89/1/1 88/1/1
f 92/2/1 88/2/1 91/2/1
f 93/1/1 89/1/1 92/1/1
f 98/4/1 95/4/1 94/4/1
f 99/4/1 95/4/1 98/4/1
f 100/4/1 97/4/1 96/4/1
f 101/4/1 97/4/1 100/4/1
f 109/2/1 103/2/1 102/2/1
f 110/2/1 103/2/1 109/2/1
f 111/1/1 105/1/1 104/1/1
f 112/1/1 105/1/1 111/1/1
f 113/2/1 107/2/1 106/2/1
f 114/2/1 107/2/1 113/2/1
f 115/1/1 109/1/1 108/1/1
f 116/2/1 110/2/1 109/2/1
f 116/1/1 109/1/1 115/1/1
f 117/2/1 110/2/1 116/2/1
f 120/3/1 119/3/1 118/3/1
f 121/3/1 119/3/1 120/3/1
f 123/3/1 122/3/1 121/3/1
f 124/3/1 122/3/1 123/3/1
f 125/3/2 126/3/2 127/3/2
f 127/3/2 126/3/2 128/3/2
f 129/3/2 130/3/2 131/3/2
f 131/3/2 130/3/2 132/3/2
f 133/2/2 134/2/2 135/2/2
f 135/2/2 134/2/2 136/2/2
f 137/4/2 138/4/2 141/4/2
f 141/4/2 138/4/2 142/4/2
f 139/4/2 140/4/2 143/4/2
f 143/4/2 140/4/2 144/4/2
f 145/1/2 146/1/2 149/1/2
f 149/1/2 146/1/2 150/1/2
f 147/1/2 148/1/2 151/1/2
f 151/1/2 148/1/2 152/1/2
f 153/4/2 154/4/2 156/4/2
f 156/4/2 154/4/2 157/4/2
f 155/4/2 156/4/2 159/4/2
f 157/4/2 158/4/2 159/4/2
f 156/4/2 157/4/2 159/4/2
f 159/4/2 158/4/2 160/4/2
f 160/4/2 158/4/2 161/4/2
f 161/4/2 158/4/2 162/4/2
f 160/1/2 161/1/2 163/1/2
f 163/1/2 161/1/2 164/1/2
f 165/4/2 166/4/2 171/4/2
f 171/4/2 166/4/2 172/4/2
f 167/4/2 168/4/2 173/4/2
f 173/4/2 168/4/2 174/4/2
f 169/3/2 170/3/2 175/3/2
f 175/3/2 170/3/2 176/3/2
f 174/3/2 175/3/2 182/3/2
f 182/3/2 175/3/2 183/3/2
f 177/3/2 178/3/2 185/3/2
f 185/3/2 178/3/2 186/3/2
f 179/2/2 180/2/2 187/2/2
f 187/2/2 180/2/2 188/2/2
f 181/2/2 182/2/2 189/2/2
f 189/2/2 182/2/2 190/2/2
f 183/3/2 184/3/2 191/3/2
f 191/3/2 184/3/2 192/3/2
f 189/2/2 190/2/2 193/2/2
f 190/1/2 191/1/2 194/1/2
f 193/2/2 190/2/2 194/2/2
f 194/1/2 191/1/2 195/1/2
f 196/4/2 197/4/2 202/4/2
f 202/4/2 197/4/2 203/4/2
f 198/4/2 199/4/2 204/4/2
f 204/4/2 199/4/2 205/4/2
f 200/4/2 201/4/2 207/4/2
f 207/4/2 201/4/2 208/4/2
f 208/4/2 209/4/2 212/4/2
f 207/4/2 208/4/2 212/4/2
f 206/4/2 207/4/2 212/4/2
f 212/4/2 209/4/2 213/4/2
f 213/4/2 209/4/2 214/4/2
f 214/4/2 209/4/2 215/4/2
f 210/1/2 211/1/2 220/1/2
f 220/1/2 211/1/2 221/1/2
f 213/1/2 214/1/2 222/1/2
f 222/1/2 214/1/2 223/1/2
f 215/2/2 216/2/2 224/2/2
f 224/2/2 216/2/2 225/2/2
f 217/1/2 218/1/2 226/1/2
f 218/2/2 219/2/2 227/2/2
f 226/1/2 218/1/2 227/1/2
f 227/2/2 219/2/2 228/2/2
f 229/4/2 230/4/2 234/4/2
f 234/4/2 230/4/2 235/4/2
f 231/3/2 232/3/2 237/3/2
f 237/3/2 232/3/2 238/3/2
f 235/4/2 236/4/2 239/4/2
f 233/4/2 234/4/2 239/4/2
f 234/4/2 235/4/2 239/4/2
f 239/4/2 236/4/2 240/4/2
f 240/4/2 236/4/2 241/4/2
f 238/3/2 239/3/2 242/3/2
f 239/1/2 240/1/2 243/1/2
f 242/3/2 239/3/2 243/3/2
f 243/1/2 240/1/2 244/1/2
f 247/3/3 246/3/3 245/3/3
f 248/3/3 246/3/3 247/3/3
f 251/3/3 250/3/3 249/3/3
f 252/3/3 250/3/3 251/3/3
f 256/1/3 254/1/3 253/1/3
f 257/1/3 254/1/3 256/1/3
f 258/3/3 256/3/3 255/3/3
f 259/3/3 256/3/3 258/3/3
f 263/4/3 261/4/3 260/4/3
f 264/4/3 261/4/3 263/4/3
f 266/4/3 263/4/3 262/4/3
f 266/4/3 264/4/3 263/4/3
f 267/4/3 264/4/3 266/4/3
f 268/2/3 265/2/3 264/2/3
f 268/4/3 264/4/3 267/4/3
f 269/2/3 265/2/3 268/2/3
f 270/4/3 268/4/3 267/4/3
f 271/4/3 268/4/3 270/4/3
f 276/4/3 273/4/3 272/4/3
f 277/4/3 273/4/3 276/4/3
f 278/1/3 275/1/3 274/1/3
f 279/1/3 275/1/3 278/1/3
f 282/4/3 281/4/3 280/4/3
f 283/4/3 281/4/3 282/4/3
f 286/3/3 285/3/3 284/3/3
f 287/3/3 285/3/3 286/3/3
f 290/1/3 288/1/3 287/1/3
f 291/1/3 288/1/3 290/1/3
f 293/4/3 290/4/3 289/4/3
f 294/2/3 291/2/3 290/2/3
f 294/4/3 290/4/3 293/4/3
f 295/2/3 291/2/3 294/2/3
f 296/4/3 293/4/3 292/4/3
f 296/4/3 294/4/3 293/4/3
f 297/4/3 294/4/3 296/4/3
f 298/1/3 295/1/3 294/1/3
f 298/4/3 294/4/3 297/4/3
f 299/1/3 295/1/3 298/1/3
f 300/4/3 298/4/3 297/4/3
f 301/4/3 298/4/3 300/4/3
f 306/1/3 303/1/3 302/1/3
f 307/1/3 303/1/3 306/1/3
f 308/4/3 305/4/3 304/4/3
f 309/4/3 305/4/3 308/4/3
f 310/2/3 307/2/3 306/2/3
f 311/2/3 307/2/3 310/2/3
f 316/4/3 313/4/3 312/4/3
f 317/4/3 313/4/3 316/4/3
f 318/1/3 315/1/3 314/1/3
f 319/1/3 315/1/3 318/1/3
f 322/3/3 321/3/3 320/3/3
f 323/3/3 321/3/3 322/3/3
f 328/4/3 325/4/3 324/4/3
f 328/4/3 326/4/3 325/4/3
f 329/4/3 326/4/3 328/4/3
f 330/2/3 327/2/3 326/2/3
f 330/4/3 326/4/3 329/4/3
f 331/2/3 327/2/3 330/2/3
f 332/4/3 330/4/3 329/4/3
f 333/4/3 330/4/3 332/4/3
f 338/4/3 335/4/3 334/4/3
f 339/4/3 335/4/3 338/4/3
f 340/1/3 337/1/3 336/1/3
f 341/1/3 337/1/3 340/1/3
f 346/4/3 343/4/3 342/4/3
f 347/4/3 343/4/3 346/4/3
f 348/1/3 345/1/3 344/1/3
f 349/1/3 345/1/3 348/1/3
f 352/2/3 351/2/3 350/2/3
f 353/2/3 351/2/3 352/2/3
f 356/2/3 355/2/3 354/2/3
f 357/2/3 355/2/3 356/2/3
f 362/3/3 359/3/3 358/3/3
f 363/3/3 359/3/3 362/3/3
f 364/3/3 361/3/3 360/3/3
f 365/3/3 361/3/3 364/3/3
f 366/3/4 367/3/4 368/3/4
f 368/3/4 367/3/4 369/3/4
f 370/3/4 371/3/4 372/3/4
f 372/3/4 371/3/4 373/3/4
f 374/2/4 375/2/4 376/2/4
f 376/2/4 375/2/4 377/2/4
f 378/4/4 379/4/4 382/4/4
f 382/4/4 379/4/4 383/4/4
f 380/1/4 381/1/4 384/1/4
f 384/1/4 381/1/4 385/1/4
f 386/4/4 387/4/4 390/4/4
f 390/4/4 387/4/4 391/4/4
f 388/1/4 389/1/4 392/1/4
f 392/1/4 389/1/4 393/1/4
f 394/4/4 395/4/4 397/4/4
f 397/4/4 395/4/4 398/4/4
f 396/4/4 397/4/4 400/4/4
f 397/4/4 398/4/4 400/4/4
f 400/4/4 398/4/4 401/4/4
f 398/1/4 399/1/4 402/1/4
f 401/4/4 398/4/4 402/4/4
f 402/1/4 399/1/4 403/1/4
f 401/4/4 402/4/4 404/4/4
f 404/4/4 402/4/4 405/4/4
f 406/3/4 407/3/4 408/3/4
f 408/3/4 407/3/4 409/3/4
f 409/1/4 410/1/4 411/1/4
f 409/1/4 411/1/4 412/1/4
f 412/1/4 411/1/4 413/1/4
f 414/1/4 415/1/4 419/1/4
f 419/1/4 415/1/4 420/1/4
f 416/4/4 417/4/4 421/4/4
f 421/4/4 417/4/4 422/4/4
f 418/2/4 419/2/4 423/2/4
f 419/2/4 420/2/4 423/2/4
f 423/2/4 420/2/4 424/2/4
f 424/2/4 420/2/4 425/2/4
f 426/4/4 427/4/4 430/4/4
f 430/4/4 427/4/4 431/4/4
f 428/1/4 429/1/4 432/1/4
f 432/1/4 429/1/4 433/1/4
f 434/3/4 435/3/4 436/3/4
f 436/3/4 435/3/4 437/3/4
f 438/4/4 439/4/4 441/4/4
f 441/4/4 439/4/4 442/4/4
f 440/4/4 441/4/4 444/4/4
f 441/4/4 442/4/4 444/4/4
f 444/4/4 442/4/4 445/4/4
f 442/1/4 443/1/4 446/1/4
f 445/4/4 442/4/4 446/4/4
f 446/1/4 443/1/4 447/1/4
f 448/4/4 449/4/4 450/4/4
f 450/4/4 449/4/4 451/4/4
f 452/4/4 453/4/4 456/4/4
f 456/4/4 453/4/4 457/4/4
f 454/1/4 455/1/4 458/1/4
f 458/1/4 455/1/4 459/1/4
f 460/4/4 461/4/4 464/4/4
f 461/1/4 462/1/4 465/1/4
f 464/4/4 461/4/4 465/4/4
f 465/1/4 462/1/4 466/1/4
f 463/4/4 464/4/4 467/4/4
f 467/4/4 464/4/4 468/4/4
f 465/2/4 466/2/4 469/2/4
f 469/2/4 466/2/4 470/2/4
f 468/4/4 469/4/4 471/4/4
f 471/4/4 469/4/4 472/4/4
f 473/3/4 474/3/4 477/3/4
f 477/3/4 474/3/4 478/3/4
f 475/1/4 476/1/4 479/1/4
f 479/1/4 476/1/4 480/1/4
f 478/2/4 479/2/4 481/2/4
f 481/2/4 479/2/4 482/2/4
f 483/3/4 484/3/4 487/3/4
f 487/3/4 484/3/4 488/3/4
f 485/3/4 486/3/4 489/3/4
f 489/3/4 486/3/4 490/3/4
f 494/4/5 492/4/5 491/4/5
f 495/4/5 492/4/5 494/4/5
f 497/4/5 494/4/5 493/4/5
f 498/2/5 495/2/5 494/2/5
f 498/4/5 494/4/5 497/4/5
f 499/4/5 496/4/5 495/4/5
f 499/2/5 495/2/5 498/2/5
f 500/4/5 496/4/5 499/4/5
f 503/4/5 499/4/5 498/4/5
f 504/4/5 499/4/5 503/4/5
f 506/4/5 502/4/5 501/4/5
f 507/4/5 502/4/5 506/4/5
f 509/4/5 506/4/5 505/4/5
f 510/2/5 507/2/5 506/2/5
f 510/4/5 506/4/5 509/4/5
f 511/4/5 508/4/5 507/4/5
f 511/2/5 507/2/5 510/2/5
f 512/4/5 508/4/5 511/4/5
f 513/4/5 511/4/5 510/4/5
f 514/4/5 511/4/5 513/4/5
f 518/4/5 516/4/5 515/4/5
f 519/4/5 516/4/5 518/4/5
f 521/4/5 518/4/5 517/4/5
f 522/2/5 519/2/5 518/2/5
f 522/4/5 518/4/5 521/4/5
f 523/4/5 520/4/5 519/4/5
f 523/2/5 519/2/5 522/2/5
f 524/4/5 520/4/5 523/4/5
f 525/4/5 523/4/5 522/4/5
f 526/4/5 523/4/5 525/4/5
f 529/3/5 528/3/5 527/3/5
f 530/3/5 528/3/5 529/3/5
f 533/3/5 532/3/5 531/3/5
f 534/3/5 532/3/5 533/3/5
f 539/4/5 536/4/5 535/4/5
f 540/4/5 536/4/5 539/4/5
f 541/4/5 538/4/5 537/4/5
f 542/4/5 538/4/5 541/4/5
f 552/4/5 544/4/5 543/4/5
f 553/4/5 544/4/5 552/4/5
f 554/4/5 546/4/5 545/4/5
f 555/4/5 546/4/5 554/4/5
f 556/3/5 548/3/5 547/3/5
f 557/3/5 548/3/5 556/3/5
f 558/4/5 550/4/5 549/4/5
f 559/4/5 550/4/5 558/4/5
f 560/4/5 552/4/5 551/4/5
f 561/4/5 552/4/5 560/4/5
f 566/4/5 563/4/5 562/4/5
f 567/4/5 563/4/5 566/4/5
f 568/4/5 565/4/5 564/4/5
f 569/4/5 565/4/5 568/4/5
f 572/4/5 569/4/5 568/4/5
f 573/4/5 569/4/5 572/4/5
f 574/4/5 571/4/5 570/4/5
f 575/4/5 571/4/5 574/4/5
f 580/4/5 577/4/5 576/4/5
f 581/4/5 577/4/5 580/4/5
f 582/4/5 579/4/5 578/4/5
f 583/4/5 579/4/5 582/4/5
f 584/3/5 582/3/5 581/3/5
f 585/3/5 582/3/5 584/3/5
f 588/3/5 587/3/5 586/3/5
f 589/3/5 587/3/5 588/3/5
f 592/3/5 591/3/5 590/3/5
f 593/3/5 591/3/5 592/3/5
f 596/1/5 595/1/5 594/1/5
f 597/1/5 595/1/5 596/1/5
f 600/3/5 599/3/5 598/3/5
f 601/3/5 599/3/5 600/3/5
f 605/2/5 603/2/5 602/2/5
f 606/2/5 603/2/5 605/2/5
f 607/3/5 605/3/5 604/3/5
f 608/3/5 605/3/5 607/3/5
f 611/1/5 610/1/5 609/1/5
f 612/1/5 610/1/5 611/1/5
f 615/1/5 614/1/5 613/1/5
f 616/1/5 614/1/5 615/1/5
f 619/1/5 618/1/5 617/1/5
f 620/1/5 618/1/5 619/1/5
f 621/3/6 622/3/6 623/3/6
f 623/3/6 622/3/6 624/3/6
f 625/3/6 626/3/6 627/3/6
f 627/3/6 626/3/6 628/3/6
f 629/4/6 630/4/6 631/4/6
f 631/4/6 630/4/6 632/4/6
f 633/4/6 634/4/6 640/4/6
f 640/4/6 634/4/6 641/4/6
f 635/4/6 636/4/6 642/4/6
f 642/4/6 636/4/6 643/4/6
f 637/3/6 638/3/6 644/3/6
f 644/3/6 638/3/6 645/3/6
f 639/4/6 640/4/6 646/4/6
f 646/4/6 640/4/6 647/4/6
f 648/4/6 649/4/6 652/4/6
f 652/4/6 649/4/6 653/4/6
f 650/4/6 651/4/6 654/4/6
f 654/4/6 651/4/6 655/4/6
f 654/4/6 655/4/6 658/4/6
f 658/4/6 655/4/6 659/4/6
f 656/4/6 657/4/6 660/4/6
f 660/4/6 657/4/6 661/4/6
f 662/4/6 663/4/6 665/4/6
f 665/4/6 663/4/6 666/4/6
f 664/3/6 665/3/6 667/3/6
f 667/3/6 665/3/6 668/3/6
f 669/3/6 670/3/6 671/3/6
f 671/3/6 670/3/6 672/3/6
f 673/3/6 674/3/6 675/3/6
f 675/3/6 674/3/6 676/3/6
f 675/1/6 676/1/6 679/1/6
f 677/1/6 678/1/6 680/1/6
f 678/2/6 679/2/6 681/2/6
f 680/1/6 678/1/6 681/1/6
f 679/1/6 676/1/6 682/1/6
f 681/2/6 679/2/6 682/2/6
f 682/1/6 676/1/6 683/1/6
f 681/1/6 682/1/6 688/1/6
f 688/1/6 682/1/6 689/1/6
f 684/1/6 685/1/6 690/1/6
f 690/1/6 685/1/6 691/1/6
f 685/2/6 686/2/6 692/2/6
f 691/1/6 685/1/6 692/1/6
f 686/1/6 687/1/6 693/1/6
f 692/2/6 686/2/6 693/2/6
f 693/1/6 687/1/6 694/1/6
f 693/2/6 694/2/6 698/2/6
f 694/1/6 695/1/6 699/1/6
f 698/2/6 694/2/6 699/2/6
f 699/1/6 695/1/6 700/1/6
f 696/3/6 697/3/6 701/3/6
f 701/3/6 697/3/6 702/3/6
f 698/1/6 699/1/6 703/1/6
f 703/1/6 699/1/6 704/1/6
f 705/2/6 706/2/6 708/2/6
f 708/2/6 706/2/6 709/2/6
f 707/1/6 708/1/6 711/1/6
f 708/2/6 709/2/6 711/2/6
f 709/1/6 710/1/6 712/1/6
f 711/2/6 709/2/6 712/2/6
f 712/1/6 710/1/6 713/1/6
f 707/1/6 711/1/6 714/1/6
f 714/1/6 711/1/6 715/1/6
f 716/2/6 717/2/6 719/2/6
f 719/2/6 717/2/6 720/2/6
f 718/3/6 719/3/6 721/3/6
f 721/3/6 719/3/6 722/3/6
f 723/1/6 724/1/6 725/1/6
f 725/1/6 724/1/6 726/1/6
f 725/2/6 726/2/6 727/2/6
f 727/2/6 726/2/6 728/2/6
f 729/1/6 730/1/6 732/1/6
f 730/2/6 731/2/6 733/2/6
f 732/1/6 730/1/6 733/1/6
f 733/2/6 731/2/6 734/2/6
f 735/2/6 736/2/6 737/2/6
f 737/2/6 736/2/6 738/2/6
f 737/1/6 738/1/6 739/1/6
f 739/1/6 738/1/6 740/1/6
